<svg width="40" height="40" viewBox="0 0 40 40" fill="none" xmlns="http://www.w3.org/2000/svg">
<mask id="mask0" mask-type="alpha" maskUnits="userSpaceOnUse" x="0" y="0" width="20" height="40">
<path fill-rule="evenodd" clip-rule="evenodd" d="M0 20C0 31.0471 8.9553 40 20 40V40V33.7929C12.3835 33.7929 6.20706 27.6165 6.20706 20V20C6.20706 12.3835 12.3835 6.20471 20 6.20471V6.20471V0C8.9553 0 0 8.9553 0 20V20Z" fill="white"/>
</mask>
<g mask="url(#mask0)">
<path fill-rule="evenodd" clip-rule="evenodd" d="M-8 48H28V-8H-8V48Z" fill="#1B1B1B"/>
</g>
<mask id="mask1" mask-type="alpha" maskUnits="userSpaceOnUse" x="20" y="0" width="20" height="20">
<path fill-rule="evenodd" clip-rule="evenodd" d="M20 0V20C31.0447 20 40 11.0471 40 0V0H20Z" fill="white"/>
</mask>
<g mask="url(#mask1)">
<path fill-rule="evenodd" clip-rule="evenodd" d="M12 28H48V-8H12V28Z" fill="#1B1B1B"/>
</g>
<mask id="mask2" mask-type="alpha" maskUnits="userSpaceOnUse" x="20" y="20" width="20" height="20">
<path fill-rule="evenodd" clip-rule="evenodd" d="M20 20V40C31.0447 40 40 31.0471 40 20V20H20Z" fill="white"/>
</mask>
<g mask="url(#mask2)">
<path fill-rule="evenodd" clip-rule="evenodd" d="M12 48H48V12H12V48Z" fill="#1B1B1B"/>
</g>
</svg>
