<svg width="32" height="32" viewBox="0 0 32 32" fill="none" xmlns="http://www.w3.org/2000/svg">
<mask id="mask0_0_148" style="mask-type:luminance" maskUnits="userSpaceOnUse" x="0" y="0" width="16" height="32">
<path fill-rule="evenodd" clip-rule="evenodd" d="M0 16C0 24.8376 7.16424 32 16 32V27.0344C9.90682 27.0344 4.96565 22.0932 4.96565 16C4.96565 9.90682 9.90682 4.96376 16 4.96376V0C7.16424 0 0 7.16424 0 16Z" fill="white"/>
</mask>
<g mask="url(#mask0_0_148)">
<path fill-rule="evenodd" clip-rule="evenodd" d="M-6.40039 38.4H22.3996V-6.40002H-6.40039V38.4Z" fill="white"/>
</g>
<mask id="mask1_0_148" style="mask-type:luminance" maskUnits="userSpaceOnUse" x="16" y="0" width="16" height="16">
<path fill-rule="evenodd" clip-rule="evenodd" d="M16 0V16C24.8358 16 32 8.83765 32 0H16Z" fill="white"/>
</mask>
<g mask="url(#mask1_0_148)">
<path fill-rule="evenodd" clip-rule="evenodd" d="M9.59961 22.4H38.3996V-6.40002H9.59961V22.4Z" fill="white"/>
</g>
<mask id="mask2_0_148" style="mask-type:luminance" maskUnits="userSpaceOnUse" x="16" y="16" width="16" height="16">
<path fill-rule="evenodd" clip-rule="evenodd" d="M16 16V32C24.8358 32 32 24.8376 32 16H16Z" fill="white"/>
</mask>
<g mask="url(#mask2_0_148)">
<path fill-rule="evenodd" clip-rule="evenodd" d="M9.59961 38.4H38.3996V9.59998H9.59961V38.4Z" fill="white"/>
</g>
</svg>
